# xmcd
#
# Track frame offsets: 
#        150
#        29911
#        52938
#        74421
#        106056
#        124933
#        129556
#        159454
#        173320
#        213550
#
# Disc length: 3065 seconds
#
# Revision: 0
# Processed by: cddbd v1.5.2PL0 Copyright (c) Steve Scherf et al.
# Submitted via: ExactAudioCopy v0.99pb3
#
DISCID=890bf70a
DTITLE=Jeff Lang - Carried in Mind
DYEAR=2011
DGENRE=Blues
TTITLE0=Running by the Rock
TTITLE1=I'm Barely There
TTITLE2=Fisherman's Farewell
TTITLE3=Towards Love
TTITLE4=Mama, Why You Holding Back Now?
TTITLE5=You Never Know Who's Listening
TTITLE6=Jack-a-roe
TTITLE7=Frightened Fool
TTITLE8=Newbridge
TTITLE9=Way Past Midnight
EXTD=
EXTT0=
EXTT1=
EXTT2=
EXTT3=
EXTT4=
EXTT5=
EXTT6=
EXTT7=
EXTT8=
EXTT9=
PLAYORDER=
